<svg width="40" height="24" viewBox="0 0 40 24" fill="none" xmlns="http://www.w3.org/2000/svg">
<rect width="40" height="24" fill="white"/>
<path d="M11.6667 7V5C11.6667 3.34315 13.9053 2 16.6667 2C17.9474 2 19.1154 2.28886 20 2.7639C20.8847 2.28885 22.0529 2 23.3334 2C26.0949 2 28.3334 3.34315 28.3334 5V7H30.8334C32.214 7 33.3334 7.67157 33.3334 8.5V18.505C33.3334 20.4352 30.7254 22 27.5084 22H13.3334C9.65145 22 6.66669 20.2091 6.66669 18V8.5C6.66669 7.67157 7.78597 7 9.16669 7H11.6667ZM22.725 20.5C22.0684 19.9343 21.6834 19.2466 21.6834 18.505V8.5H9.16669V18C9.16669 19.3807 11.0322 20.5 13.3334 20.5H22.725ZM19.1667 7V5C19.1667 4.17157 18.0474 3.5 16.6667 3.5C15.286 3.5 14.1667 4.17157 14.1667 5V7H19.1667ZM21.6667 7H25.8334V5C25.8334 4.17157 24.714 3.5 23.3334 3.5C22.5584 3.5 21.8659 3.71156 21.4074 4.04368C21.5755 4.34403 21.6667 4.66563 21.6667 5V7ZM24.1834 18.505C24.1834 19.6068 25.672 20.5 27.5084 20.5C29.3447 20.5 30.8334 19.6068 30.8334 18.505V8.5H24.1834V18.505Z" fill="black"/>
</svg>
