<svg width="25" height="24" viewBox="0 0 25 24" fill="none" xmlns="http://www.w3.org/2000/svg">
<path d="M18.3428 14.0002C19.5849 14.0002 20.5917 15.007 20.5917 16.2491V16.8245C20.5917 17.7188 20.2721 18.5836 19.6906 19.263C18.1212 21.0965 15.734 22.0013 12.5887 22.0013C9.44281 22.0013 7.0568 21.0962 5.4905 19.2619C4.91073 18.583 4.59222 17.7195 4.59222 16.8267V16.2491C4.59222 15.007 5.59907 14.0002 6.84109 14.0002H18.3428ZM18.3428 15.5002H6.84109C6.4275 15.5002 6.09222 15.8355 6.09222 16.2491V16.8267C6.09222 17.3624 6.28333 17.8805 6.63118 18.2878C7.88449 19.7555 9.85037 20.5013 12.5887 20.5013C15.327 20.5013 17.2946 19.7555 18.551 18.2876C18.9 17.8799 19.0917 17.361 19.0917 16.8245V16.2491C19.0917 15.8355 18.7564 15.5002 18.3428 15.5002ZM12.5887 2.00488C15.3501 2.00488 17.5887 4.24346 17.5887 7.00488C17.5887 9.76631 15.3501 12.0049 12.5887 12.0049C9.82725 12.0049 7.58867 9.76631 7.58867 7.00488C7.58867 4.24346 9.82725 2.00488 12.5887 2.00488ZM12.5887 3.50488C10.6557 3.50488 9.08867 5.07189 9.08867 7.00488C9.08867 8.93788 10.6557 10.5049 12.5887 10.5049C14.5217 10.5049 16.0887 8.93788 16.0887 7.00488C16.0887 5.07189 14.5217 3.50488 12.5887 3.50488Z" fill="#212121"/>
</svg>
