<svg width="55" height="47" viewBox="0 0 55 47" fill="none" xmlns="http://www.w3.org/2000/svg">
<g clip-path="url(#clip0_953_72)">
<path d="M44.8754 37.2082H10.1246C7.07784 37.2082 4.60742 34.9345 4.60742 32.1312V14.8685C4.60742 12.0651 7.07784 9.7915 10.1246 9.7915H44.8766C47.9234 9.7915 50.3938 12.0651 50.3938 14.8685V32.1312C50.3926 34.9345 47.9222 37.2082 44.8754 37.2082Z" fill="url(#paint0_linear_953_72)"/>
<path d="M41.1526 10.2812H45.2604C48.4241 10.2812 50.9896 12.4736 50.9896 15.1771V31.8229C50.9896 34.5264 48.4241 36.7188 45.2604 36.7188H19.7966" stroke="#008080" stroke-width="3" stroke-miterlimit="10" stroke-linecap="round" stroke-linejoin="round"/>
<path d="M11.7104 36.7188H9.7396C6.57596 36.7188 4.01044 34.5264 4.01044 31.8229V15.1771C4.01044 12.4736 6.57596 10.2812 9.7396 10.2812H32.8144" stroke="#008080" stroke-width="3" stroke-miterlimit="10" stroke-linecap="round" stroke-linejoin="round"/>
<path d="M11.7104 23.9662H14.1762L12.9181 21.2334L11.7104 23.9662ZM33.8548 21.2677V22.7315H38.3189V24.2159H33.8548V25.7611H38.5217L40.7481 23.4062L38.7796 21.2794L33.8548 21.2677ZM29.2096 27.4002H27.1849V21.6956L24.4142 27.4002H22.574L19.8699 21.5967V27.4002H15.7907L14.9898 25.6543H10.9473L10.1566 27.4002H8.02081L11.6302 19.5835H14.3069L17.8406 27.1113V19.5835H21.0146L23.4896 24.824L25.976 19.5835H29.2084L29.2096 27.4002ZM46.9528 27.4168H44.3827L42.0097 24.8152L39.5782 27.4002H31.8587V19.5835H39.8395L42.083 22.0265L44.4022 19.6011H46.9791L43.3526 23.4062L46.9528 27.4168Z" fill="#008080"/>
</g>
<defs>
<linearGradient id="paint0_linear_953_72" x1="45.2914" y1="8.29632" x2="15.2562" y2="43.4439" gradientUnits="userSpaceOnUse">
<stop offset="0.033" stop-color="#BFE0E0"/>
<stop offset="1" stop-color="white"/>
</linearGradient>
<clipPath id="clip0_953_72">
<rect width="55" height="47" fill="white"/>
</clipPath>
</defs>
</svg>
