<svg width="50" height="43" viewBox="0 0 50 43" fill="none" xmlns="http://www.w3.org/2000/svg">
<path d="M46.875 31.125C46.875 33.05 45 34.625 42.7083 34.625H7.29167C5 34.625 3.125 33.05 3.125 31.125V11.875C3.125 9.95 5 8.375 7.29167 8.375H42.7083C45 8.375 46.875 9.95 46.875 11.875V31.125Z" fill="#BFE0E0"/>
<path d="M46.875 31.125C46.875 33.05 45 34.625 42.7084 34.625H16.6667C16.6667 34.625 41.25 31.3 46.875 21.5V31.125ZM22.9167 21.5C22.9167 22.9875 24.2709 24.125 26.0417 24.125C27.8125 24.125 29.1667 22.9875 29.1667 21.5C29.1667 20.0125 27.8125 18.875 26.0417 18.875C24.2709 18.875 22.9167 20.0125 22.9167 21.5Z" fill="#008080"/>
<path d="M11.6667 18.8751H12.8125V24.1251H11.6667V18.8751ZM17.9167 21.5001C17.9167 22.9876 19.2708 24.1251 21.0417 24.1251C21.5625 24.1251 21.9792 24.0376 22.5 23.8626V22.7251C22.0833 23.0751 21.6667 23.2501 21.0417 23.2501C19.8958 23.2501 19.0625 22.5501 19.0625 21.5001C19.0625 20.5376 19.8958 19.7501 21.0417 19.7501C21.5625 19.7501 21.9792 19.9251 22.5 20.2751V19.1376C21.9792 18.9626 21.5625 18.7876 21.0417 18.7876C19.2708 18.8751 17.9167 20.1001 17.9167 21.5001ZM31.875 22.2876L30.2083 18.8751H28.9583L31.5625 24.1251H32.1875L34.7917 18.8751H33.5417L31.875 22.2876ZM35.3125 24.1251H38.6458V23.2501H36.4583V21.8501H38.5417V20.9751H36.4583V19.7501H38.6458V18.8751H35.3125V24.1251ZM43.2292 20.4501C43.2292 19.4876 42.5 18.8751 41.1458 18.8751H39.375V24.1251H40.5208V22.0251H40.625L42.2917 24.1251H43.75L41.875 21.9376C42.7083 21.7626 43.2292 21.2376 43.2292 20.4501ZM40.8333 21.3251H40.5208V19.7501H40.8333C41.5625 19.7501 41.9792 20.0126 41.9792 20.5376C41.9792 20.9751 41.6667 21.3251 40.8333 21.3251ZM8.02083 18.8751H6.25V24.1251H7.91667C10.5208 24.1251 11.1458 22.2876 11.1458 21.5001C11.25 19.9251 9.89583 18.8751 8.02083 18.8751ZM7.70833 23.2501H7.39583V19.7501H7.8125C9.375 19.7501 10 20.6251 10 21.5001C10 21.8501 9.89583 23.2501 7.70833 23.2501ZM15.9375 20.8876C15.2083 20.6251 15 20.5376 15 20.2751C15 19.9251 15.4167 19.7501 15.8333 19.7501C16.1458 19.7501 16.4583 19.8376 16.7708 20.1876L17.3958 19.4876C16.875 19.0501 16.3542 18.8751 15.625 18.8751C14.5833 18.8751 13.75 19.4876 13.75 20.3626C13.75 21.0626 14.1667 21.4126 15.2083 21.7626C15.8333 21.9376 16.3542 22.1126 16.3542 22.5501C16.3542 22.9876 15.9375 23.2501 15.4167 23.2501C14.8958 23.2501 14.375 22.9876 14.1667 22.5501L13.4375 23.1626C13.9583 23.8626 14.5833 24.1251 15.5208 24.1251C16.7708 24.1251 17.6042 23.4251 17.6042 22.4626C17.6042 21.6751 17.1875 21.3251 15.9375 20.8876Z" fill="black"/>
</svg>
