<svg width="44" height="45" viewBox="0 0 44 45" fill="none" xmlns="http://www.w3.org/2000/svg">
<path d="M9.62502 3.77783C6.33432 3.77783 3.66669 6.44546 3.66669 9.73617V26.2362C3.66669 27.4119 4.00717 28.5078 4.59492 29.4313L15.0467 19.5867C16.6354 18.0903 19.1147 18.0903 20.7033 19.5867L31.155 29.4315C31.7429 28.508 32.0834 27.4119 32.0834 26.2362V9.73617C32.0834 6.44546 29.4157 3.77783 26.125 3.77783H9.62502ZM23.375 14.7778C22.1093 14.7778 21.0834 13.7518 21.0834 12.4862C21.0834 11.2205 22.1093 10.1945 23.375 10.1945C24.6408 10.1945 25.6667 11.2205 25.6667 12.4862C25.6667 13.7518 24.6408 14.7778 23.375 14.7778ZM9.62502 32.1945C8.5072 32.1945 7.46128 31.8867 6.56741 31.3512L16.9322 21.5885C17.4618 21.0896 18.2882 21.0896 18.8177 21.5885L29.1825 31.3513C28.2885 31.8867 27.2428 32.1945 26.125 32.1945H9.62502ZM11.9149 34.4862V34.0278H26.5834C26.73 34.0278 26.8756 34.0236 27.0201 34.015C30.8677 33.7899 33.9183 30.5984 33.9183 26.6943V12.0278H34.3732C37.6638 12.0278 40.3315 14.6955 40.3315 17.9862V30.8195C40.3315 36.1353 36.0223 40.4445 30.7065 40.4445H17.8732C14.5825 40.4445 11.9149 37.7768 11.9149 34.4862Z" fill="white"/>
</svg>
