<svg width="30" height="31" viewBox="0 0 30 31" fill="none" xmlns="http://www.w3.org/2000/svg">
<path d="M14.9997 12.1283C13.3553 12.1283 12.0163 13.4666 12.0163 15.111C12.0163 16.7561 13.3553 18.095 14.9997 18.095C16.6447 18.095 17.983 16.7561 17.983 15.111C17.983 13.4666 16.6447 12.1283 14.9997 12.1283ZM14.9997 12.1283C13.3553 12.1283 12.0163 13.4666 12.0163 15.111C12.0163 16.7561 13.3553 18.095 14.9997 18.095C16.6447 18.095 17.983 16.7561 17.983 15.111C17.983 13.4666 16.6447 12.1283 14.9997 12.1283ZM19.9697 7.26425H10.0303C8.44382 7.26425 7.15292 8.55514 7.15292 10.1416V20.081C7.15292 21.6675 8.44382 22.9584 10.0303 22.9584H19.9697C21.5562 22.9584 22.8471 21.6675 22.8471 20.081V10.1416C22.8471 8.55514 21.5562 7.26425 19.9697 7.26425ZM14.9997 20.2779C12.1513 20.2779 9.83345 17.9601 9.83345 15.111C9.83345 12.2626 12.1513 9.94478 14.9997 9.94478C17.8487 9.94478 20.1665 12.2626 20.1665 15.111C20.1665 17.9601 17.8487 20.2779 14.9997 20.2779ZM20.3324 11.0132C19.6583 11.0132 19.11 10.4648 19.11 9.79074C19.11 9.11666 19.6583 8.56831 20.3324 8.56831C21.0065 8.56831 21.5549 9.11666 21.5549 9.79074C21.5549 10.4648 21.0065 11.0132 20.3324 11.0132ZM14.9997 12.1283C13.3553 12.1283 12.0163 13.4666 12.0163 15.111C12.0163 16.7561 13.3553 18.095 14.9997 18.095C16.6447 18.095 17.983 16.7561 17.983 15.111C17.983 13.4666 16.6447 12.1283 14.9997 12.1283ZM19.9697 7.26425H10.0303C8.44382 7.26425 7.15292 8.55514 7.15292 10.1416V20.081C7.15292 21.6675 8.44382 22.9584 10.0303 22.9584H19.9697C21.5562 22.9584 22.8471 21.6675 22.8471 20.081V10.1416C22.8471 8.55514 21.5562 7.26425 19.9697 7.26425ZM14.9997 20.2779C12.1513 20.2779 9.83345 17.9601 9.83345 15.111C9.83345 12.2626 12.1513 9.94478 14.9997 9.94478C17.8487 9.94478 20.1665 12.2626 20.1665 15.111C20.1665 17.9601 17.8487 20.2779 14.9997 20.2779ZM20.3324 11.0132C19.6583 11.0132 19.11 10.4648 19.11 9.79074C19.11 9.11666 19.6583 8.56831 20.3324 8.56831C21.0065 8.56831 21.5549 9.11666 21.5549 9.79074C21.5549 10.4648 21.0065 11.0132 20.3324 11.0132ZM14.9997 12.1283C13.3553 12.1283 12.0163 13.4666 12.0163 15.111C12.0163 16.7561 13.3553 18.095 14.9997 18.095C16.6447 18.095 17.983 16.7561 17.983 15.111C17.983 13.4666 16.6447 12.1283 14.9997 12.1283ZM0 0.111328V30.1113H30V0.111328H0ZM25.03 20.081C25.03 22.8715 22.7602 25.1413 19.9697 25.1413H10.0303C7.23981 25.1413 4.97005 22.8715 4.97005 20.081V10.1416C4.97005 7.35114 7.23981 5.08138 10.0303 5.08138H19.9697C22.7602 5.08138 25.03 7.35114 25.03 10.1416V20.081ZM19.9697 7.26425H10.0303C8.44382 7.26425 7.15292 8.55514 7.15292 10.1416V20.081C7.15292 21.6675 8.44382 22.9584 10.0303 22.9584H19.9697C21.5562 22.9584 22.8471 21.6675 22.8471 20.081V10.1416C22.8471 8.55514 21.5562 7.26425 19.9697 7.26425ZM14.9997 20.2779C12.1513 20.2779 9.83345 17.9601 9.83345 15.111C9.83345 12.2626 12.1513 9.94478 14.9997 9.94478C17.8487 9.94478 20.1665 12.2626 20.1665 15.111C20.1665 17.9601 17.8487 20.2779 14.9997 20.2779ZM20.3324 11.0132C19.6583 11.0132 19.11 10.4648 19.11 9.79074C19.11 9.11666 19.6583 8.56831 20.3324 8.56831C21.0065 8.56831 21.5549 9.11666 21.5549 9.79074C21.5549 10.4648 21.0065 11.0132 20.3324 11.0132ZM14.9997 12.1283C13.3553 12.1283 12.0163 13.4666 12.0163 15.111C12.0163 16.7561 13.3553 18.095 14.9997 18.095C16.6447 18.095 17.983 16.7561 17.983 15.111C17.983 13.4666 16.6447 12.1283 14.9997 12.1283ZM14.9997 12.1283C13.3553 12.1283 12.0163 13.4666 12.0163 15.111C12.0163 16.7561 13.3553 18.095 14.9997 18.095C16.6447 18.095 17.983 16.7561 17.983 15.111C17.983 13.4666 16.6447 12.1283 14.9997 12.1283ZM14.9997 12.1283C13.3553 12.1283 12.0163 13.4666 12.0163 15.111C12.0163 16.7561 13.3553 18.095 14.9997 18.095C16.6447 18.095 17.983 16.7561 17.983 15.111C17.983 13.4666 16.6447 12.1283 14.9997 12.1283ZM19.9697 7.26425H10.0303C8.44382 7.26425 7.15292 8.55514 7.15292 10.1416V20.081C7.15292 21.6675 8.44382 22.9584 10.0303 22.9584H19.9697C21.5562 22.9584 22.8471 21.6675 22.8471 20.081V10.1416C22.8471 8.55514 21.5562 7.26425 19.9697 7.26425ZM14.9997 20.2779C12.1513 20.2779 9.83345 17.9601 9.83345 15.111C9.83345 12.2626 12.1513 9.94478 14.9997 9.94478C17.8487 9.94478 20.1665 12.2626 20.1665 15.111C20.1665 17.9601 17.8487 20.2779 14.9997 20.2779ZM20.3324 11.0132C19.6583 11.0132 19.11 10.4648 19.11 9.79074C19.11 9.11666 19.6583 8.56831 20.3324 8.56831C21.0065 8.56831 21.5549 9.11666 21.5549 9.79074C21.5549 10.4648 21.0065 11.0132 20.3324 11.0132ZM14.9997 12.1283C13.3553 12.1283 12.0163 13.4666 12.0163 15.111C12.0163 16.7561 13.3553 18.095 14.9997 18.095C16.6447 18.095 17.983 16.7561 17.983 15.111C17.983 13.4666 16.6447 12.1283 14.9997 12.1283ZM14.9997 12.1283C13.3553 12.1283 12.0163 13.4666 12.0163 15.111C12.0163 16.7561 13.3553 18.095 14.9997 18.095C16.6447 18.095 17.983 16.7561 17.983 15.111C17.983 13.4666 16.6447 12.1283 14.9997 12.1283ZM14.9997 12.1283C13.3553 12.1283 12.0163 13.4666 12.0163 15.111C12.0163 16.7561 13.3553 18.095 14.9997 18.095C16.6447 18.095 17.983 16.7561 17.983 15.111C17.983 13.4666 16.6447 12.1283 14.9997 12.1283ZM19.9697 7.26425H10.0303C8.44382 7.26425 7.15292 8.55514 7.15292 10.1416V20.081C7.15292 21.6675 8.44382 22.9584 10.0303 22.9584H19.9697C21.5562 22.9584 22.8471 21.6675 22.8471 20.081V10.1416C22.8471 8.55514 21.5562 7.26425 19.9697 7.26425ZM14.9997 20.2779C12.1513 20.2779 9.83345 17.9601 9.83345 15.111C9.83345 12.2626 12.1513 9.94478 14.9997 9.94478C17.8487 9.94478 20.1665 12.2626 20.1665 15.111C20.1665 17.9601 17.8487 20.2779 14.9997 20.2779ZM20.3324 11.0132C19.6583 11.0132 19.11 10.4648 19.11 9.79074C19.11 9.11666 19.6583 8.56831 20.3324 8.56831C21.0065 8.56831 21.5549 9.11666 21.5549 9.79074C21.5549 10.4648 21.0065 11.0132 20.3324 11.0132ZM14.9997 12.1283C13.3553 12.1283 12.0163 13.4666 12.0163 15.111C12.0163 16.7561 13.3553 18.095 14.9997 18.095C16.6447 18.095 17.983 16.7561 17.983 15.111C17.983 13.4666 16.6447 12.1283 14.9997 12.1283Z" fill="#BFE0E0"/>
</svg>
