<svg width="45" height="41" viewBox="0 0 45 41" fill="none" xmlns="http://www.w3.org/2000/svg">
<path d="M40.5547 8H4.69531C3.20656 8 2 9.0725 2 10.3958V30.6042C2 31.9275 3.20656 33 4.69531 33H40.5547C42.0434 33 43.25 31.9275 43.25 30.6042V10.3958C43.25 9.0725 42.0434 8 40.5547 8Z" fill="url(#paint0_linear_953_65)"/>
<path d="M15.9872 29.1324C21.1923 29.1324 25.4119 25.2879 25.4119 20.5454C25.4119 15.803 21.1923 11.9585 15.9872 11.9585C10.7821 11.9585 6.5625 15.803 6.5625 20.5454C6.5625 25.2879 10.7821 29.1324 15.9872 29.1324Z" fill="#CF1928"/>
<path d="M28.1747 29.1324C33.3798 29.1324 37.5994 25.2879 37.5994 20.5454C37.5994 15.803 33.3798 11.9585 28.1747 11.9585C22.9696 11.9585 18.75 15.803 18.75 20.5454C18.75 25.2879 22.9696 29.1324 28.1747 29.1324Z" fill="url(#paint1_linear_953_65)"/>
<path d="M18.75 20.5451C18.75 23.1691 20.0456 25.5147 22.0809 27.0897C24.1172 25.5147 25.4119 23.1691 25.4119 20.5451C25.4119 17.9211 24.1162 15.5756 22.0809 14.0005C20.0456 15.5756 18.75 17.9211 18.75 20.5451Z" fill="#D97218"/>
<defs>
<linearGradient id="paint0_linear_953_65" x1="19.2266" y1="9.7175" x2="25.525" y2="35.008" gradientUnits="userSpaceOnUse">
<stop stop-color="#BFE0E0"/>
<stop offset="1" stop-color="#BFE0E0"/>
</linearGradient>
<linearGradient id="paint1_linear_953_65" x1="18.75" y1="20.5454" x2="37.6003" y2="20.5454" gradientUnits="userSpaceOnUse">
<stop stop-color="#FEDE00"/>
<stop offset="1" stop-color="#FFD000"/>
</linearGradient>
</defs>
</svg>
