<svg width="48" height="27" viewBox="0 0 48 27" fill="none" xmlns="http://www.w3.org/2000/svg">
<g clip-path="url(#clip0_953_77)">
<path d="M42.0375 26.7048H5.2125C2.325 26.7048 0 25.397 0 23.7728V3.22744C0 1.60322 2.325 0.29541 5.2125 0.29541H42.0375C44.925 0.29541 47.25 1.60322 47.25 3.22744V23.7938C47.25 25.397 44.925 26.7048 42.0375 26.7048ZM5.2125 1.56104C3.5625 1.56104 2.25 2.29932 2.25 3.22744V23.7938C2.25 24.722 3.5625 25.4603 5.2125 25.4603H42.0375C43.6875 25.4603 45 24.722 45 23.7938V3.22744C45 2.29932 43.6875 1.56104 42.0375 1.56104H5.2125Z" fill="#BFE0E0"/>
<path d="M1.5 3.45205C1.5 2.21411 3.3375 1.20312 5.5875 1.20312H42.4125C44.6625 1.20312 46.5 2.21411 46.5 3.45205V23.5686C46.5 24.8065 44.6625 25.8175 42.4125 25.8175H5.5875C3.3375 25.8175 1.5 24.8065 1.5 23.5686V3.45205Z" fill="white"/>
<path d="M17.775 17.2137L18.75 14.9441C18.9 14.6347 19.5 14.3664 20.1 14.3664H20.8875C24.3 14.3664 27 13.9951 28.875 13.211C30.7875 12.4476 31.725 11.4366 31.725 10.1987C31.725 9.64164 31.5375 9.18772 31.2 8.81634C30.8625 8.44496 30.3375 8.15611 29.6625 7.92915C28.9875 7.7022 28.1625 7.53714 27.225 7.43398C26.2875 7.33081 25.2 7.28955 23.925 7.28955H18.075C17.475 7.28955 16.875 7.55777 16.725 7.86726L12.7875 17.2137C12.6375 17.5232 13.05 17.7914 13.65 17.7914H16.4625C17.025 17.7914 17.6625 17.5232 17.775 17.2137ZM20.0625 11.808L20.925 9.82733C21.075 9.51784 21.675 9.24962 22.275 9.24962H23.2125C24.3 9.24962 25.0875 9.35278 25.65 9.53847C26.2125 9.72416 26.475 10.0336 26.475 10.4463C26.475 11.0653 26.0625 11.5398 25.2 11.8699C24.3375 12.2 23.175 12.3651 21.675 12.3651H20.9625C20.325 12.3857 19.95 12.1175 20.0625 11.808Z" fill="#008080"/>
<path d="M33.3 10.2195C33.45 10.4877 33.525 10.8178 33.525 11.1686C33.525 12.4065 32.5875 13.4175 30.675 14.1809C28.7625 14.9443 26.1 15.3363 22.6875 15.3363H21.9C21.3 15.3363 20.7 15.6045 20.55 15.914L19.575 18.1629C19.425 18.4724 18.825 18.7406 18.225 18.7406H16.4625L16.3125 19.112C16.125 19.4215 16.5375 19.6897 17.1375 19.6897H19.95C20.55 19.6897 21.15 19.4215 21.3 19.112L22.275 16.8631C22.425 16.5536 23.025 16.2854 23.625 16.2854H24.375C27.7875 16.2854 30.45 15.914 32.3625 15.13C34.275 14.3666 35.2125 13.3556 35.2125 12.1176C35.2125 11.5606 35.025 11.1067 34.6875 10.7353C34.4625 10.4877 34.1625 10.2814 33.7875 10.1163C33.6375 10.0131 33.1875 10.0544 33.3 10.2195Z" fill="#008080"/>
</g>
<defs>
<clipPath id="clip0_953_77">
<rect width="48" height="26.4094" fill="white" transform="translate(0 0.29541)"/>
</clipPath>
</defs>
</svg>
