<svg width="27" height="38" viewBox="0 0 27 38" fill="none" xmlns="http://www.w3.org/2000/svg">
<path d="M4.91547 1.58265L6.88922 0.951961C8.73872 0.360986 10.7147 1.31606 11.5069 3.18375L13.083 6.90056C13.7699 8.52022 13.3888 10.4249 12.1407 11.6094L8.66779 14.9058C8.88207 16.8774 9.54484 18.8189 10.656 20.7304C11.7674 22.6416 13.1552 24.2271 14.8197 25.4868L18.9909 24.0958C20.572 23.5685 22.2938 24.1745 23.2637 25.5993L25.5229 28.9186C26.6504 30.5748 26.4476 32.8599 25.0486 34.2642L23.5495 35.7692C22.0573 37.2672 19.9261 37.8106 17.9545 37.1957C13.2999 35.7437 9.02032 31.4332 5.11572 24.2641C1.20546 17.0844 -0.17458 10.993 0.975598 5.9898C1.4596 3.88454 2.95837 2.208 4.91547 1.58265Z" fill="white"/>
</svg>
