<svg width="45" height="41" viewBox="0 0 45 41" fill="none" xmlns="http://www.w3.org/2000/svg">
<path d="M40.375 8C41.9258 8 43.1875 9.1215 43.1875 10.5V30.5C43.1875 31.8785 41.9258 33 40.375 33H4.375C2.82419 33 1.5625 31.8785 1.5625 30.5V10.5C1.5625 9.1215 2.82419 8 4.375 8H40.375ZM40.375 7.5H4.375C2.51088 7.5 1 8.843 1 10.5V30.5C1 32.157 2.51088 33.5 4.375 33.5H40.375C42.2391 33.5 43.75 32.157 43.75 30.5V10.5C43.75 8.843 42.2391 7.5 40.375 7.5Z" fill="#BFE0E0"/>
<path d="M4.5 33.25C2.7945 33.25 1.40625 32.0165 1.40625 30.5V10.5C1.40625 8.9835 2.7945 7.75 4.5 7.75H40.5C42.2055 7.75 43.5938 8.9835 43.5938 10.5V30.5C43.5938 32.0165 42.2055 33.25 40.5 33.25H4.5Z" fill="#BFE0E0"/>
<path d="M15.75 29.25C10.3224 29.25 5.90625 25.3245 5.90625 20.5C5.90625 15.6755 10.3224 11.75 15.75 11.75H29.25C34.6776 11.75 39.0938 15.6755 39.0938 20.5C39.0938 25.3245 34.6776 29.25 29.25 29.25H15.75Z" fill="#008080"/>
<path d="M29.25 12C34.5229 12 38.8125 15.813 38.8125 20.5C38.8125 25.187 34.5229 29 29.25 29H15.75C10.4771 29 6.1875 25.187 6.1875 20.5C6.1875 15.813 10.4771 12 15.75 12H29.25ZM29.25 11.5C26.6529 11.5 18.3471 11.5 15.75 11.5C10.1582 11.5 5.625 15.5295 5.625 20.5C5.625 25.4705 10.1582 29.5 15.75 29.5C18.3471 29.5 26.6529 29.5 29.25 29.5C34.8418 29.5 39.375 25.4705 39.375 20.5C39.375 15.5295 34.8418 11.5 29.25 11.5Z" fill="#008080"/>
<path d="M15.75 13.5C11.4188 13.5 7.875 16.65 7.875 20.5C7.875 24.35 11.4188 27.5 15.75 27.5C20.0813 27.5 23.625 24.35 23.625 20.5C23.625 16.65 20.0813 13.5 15.75 13.5ZM10.5002 20.5C10.5002 18.2835 12.2062 16.5335 14.4377 15.95V24.9335C12.2062 24.4665 10.5002 22.7165 10.5002 20.5ZM17.0623 25.05V16.0665C19.2937 16.533 20.9998 18.4 20.9998 20.6165C20.9998 22.7165 19.2937 24.4665 17.0623 25.05Z" fill="#BFE0E0"/>
</svg>
