<svg width="45" height="41" viewBox="0 0 45 41" fill="none" xmlns="http://www.w3.org/2000/svg">
<path d="M42.375 29.6667C42.375 31.5075 40.6959 33 38.625 33H6.75C4.67906 33 3 31.5075 3 29.6667V11.3333C3 9.4925 4.67906 8 6.75 8H38.625C40.6959 8 42.375 9.4925 42.375 11.3333V29.6667Z" fill="#BFE0E0"/>
<path d="M14.2369 16.2294L11.775 22.9192C11.775 22.9192 11.1497 20.0893 11.0878 19.734C9.68623 16.8205 7.6181 16.9827 7.6181 16.9827L10.0556 25.6252V25.6235H13.019L17.1169 16.2294H14.2369ZM16.5834 25.6252H19.275L20.9025 16.2294H18.1772L16.5834 25.6252ZM35.6325 16.2294H32.8003L28.3847 25.6252H31.0584L31.6097 24.2833H34.9809L35.2678 25.6252H37.7175L35.6325 16.2294ZM32.3559 22.4887L33.8212 18.9379L34.5881 22.4887H32.3559ZM24.7209 18.9678C24.7209 18.4502 25.1878 18.065 26.5265 18.065C27.3965 18.065 28.3931 18.6407 28.3931 18.6407L28.83 16.6684C28.83 16.6684 27.5569 16.2285 26.3072 16.2285C23.4769 16.2285 22.0172 17.4619 22.0172 19.0233C22.0172 21.8472 25.7475 21.4603 25.7475 22.9107C25.7475 23.1592 25.5309 23.7341 23.9775 23.7341C22.4194 23.7341 21.3909 23.2139 21.3909 23.2139L20.9269 25.1067C20.9269 25.1067 21.9234 25.6243 23.849 25.6243C25.7794 25.6243 28.4569 24.3089 28.4569 22.4195C28.4569 20.1466 24.7209 19.9826 24.7209 18.9678Z" fill="#008080"/>
<path d="M11.4488 21.3071L10.5431 17.2515C10.5431 17.2515 10.1334 16.3726 9.06845 16.3726C8.00345 16.3726 4.90594 16.3726 4.90594 16.3726C4.90594 16.3726 10.2131 17.8007 11.4488 21.3071Z" fill="#FFC107"/>
</svg>
