<svg width="30" height="30" viewBox="0 0 30 30" fill="none" xmlns="http://www.w3.org/2000/svg">
<g clip-path="url(#clip0_948_88)">
<path d="M15.1816 29.9297C23.3656 29.9297 30 23.2953 30 15.1113C30 6.92737 23.3656 0.292969 15.1816 0.292969C6.99769 0.292969 0.363281 6.92737 0.363281 15.1113C0.363281 23.2953 6.99769 29.9297 15.1816 29.9297Z" fill="#BFE0E0"/>
<path d="M5.67746 15.0251C5.6768 16.7065 6.11609 18.348 6.95151 19.795L5.59744 24.7387L10.6571 23.412C12.051 24.1723 13.6204 24.5727 15.2179 24.5734H15.2218C20.4817 24.5734 24.7635 20.2929 24.7658 15.0323C24.7668 12.4829 23.7746 10.0856 21.973 8.28241C20.1711 6.47918 17.7748 5.48536 15.2218 5.48438C9.96096 5.48437 5.67977 9.76425 5.67746 15.0251ZM8.69053 19.5457L8.50151 19.2457C7.70725 17.9832 7.28805 16.5237 7.28871 15.0254C7.29036 10.653 10.8487 7.09562 15.2244 7.09562C17.3435 7.09661 19.3347 7.92249 20.8327 9.42112C22.3303 10.9201 23.1546 12.9127 23.1542 15.0314C23.1523 19.4041 19.5939 22.9618 15.2215 22.9618H15.2185C13.795 22.9608 12.3987 22.5788 11.181 21.8564L10.8912 21.6845L7.88869 22.4718L8.69053 19.5457Z" fill="black"/>
<path d="M12.8364 11.0357C12.6576 10.6386 12.4699 10.6307 12.2996 10.6238C12.1607 10.6178 12.0016 10.6182 11.8426 10.6182C11.6835 10.6182 11.425 10.6778 11.2067 10.9165C10.988 11.1553 10.3719 11.7322 10.3719 12.9051C10.3719 14.0784 11.2264 15.2122 11.3456 15.3716C11.4649 15.5306 12.9954 18.0152 15.4191 18.9711C17.4337 19.7654 17.8433 19.6076 18.2806 19.5678C18.7179 19.528 19.6917 18.9912 19.8902 18.4344C20.0891 17.8775 20.0891 17.4004 20.0295 17.3006C19.9699 17.2011 19.8109 17.1415 19.5725 17.0223C19.3341 16.9031 18.1614 16.3262 17.9431 16.2465C17.7245 16.1671 17.5654 16.1273 17.4064 16.366C17.2473 16.6045 16.7906 17.1415 16.6516 17.3006C16.5126 17.46 16.3734 17.4797 16.1349 17.3605C15.8965 17.241 15.1283 16.9894 14.2171 16.177C13.5081 15.5448 13.0297 14.7643 12.8904 14.5256C12.7514 14.2872 12.8756 14.1581 12.9951 14.0392C13.1021 13.9325 13.2335 13.7606 13.353 13.6217C13.4719 13.4824 13.5118 13.3829 13.5911 13.2239C13.6708 13.0648 13.631 12.9256 13.5714 12.806C13.5118 12.6865 13.0484 11.5073 12.8364 11.0357Z" fill="black"/>
</g>
<defs>
<clipPath id="clip0_948_88">
<rect width="29.6367" height="29.6367" fill="white" transform="translate(0.363281 0.292969)"/>
</clipPath>
</defs>
</svg>
