<svg width="31" height="25" viewBox="0 0 31 25" fill="none" xmlns="http://www.w3.org/2000/svg">
<path d="M10.0495 24.1522C21.2331 24.1522 27.3501 14.8864 27.3501 6.85156C27.3501 6.58845 27.3501 6.32633 27.3323 6.06553C28.5224 5.20475 29.5495 4.13914 30.3658 2.91811C29.2561 3.40975 28.0788 3.73246 26.8733 3.87472C28.1427 3.1147 29.0927 1.91968 29.5465 0.511608C28.3528 1.21993 27.0471 1.71914 25.6855 1.98752C23.3827 -0.461136 19.5309 -0.579353 17.0823 1.72342C15.503 3.20855 14.8332 5.42142 15.3232 7.53321C10.4348 7.28788 5.8796 4.97885 2.79212 1.18008C1.17823 3.95836 2.00246 7.51279 4.67471 9.29692C3.7069 9.26827 2.7605 9.00714 1.91487 8.53591C1.91487 8.56094 1.91487 8.58696 1.91487 8.61297C1.91553 11.5075 3.95585 14.0003 6.79307 14.5736C5.89804 14.8176 4.95856 14.8535 4.0474 14.678C4.84397 17.1549 7.12665 18.8518 9.7281 18.9005C7.57482 20.5928 4.91509 21.5112 2.17666 21.5086C1.69292 21.5076 1.20984 21.4783 0.729401 21.4206C3.50998 23.2051 6.74565 24.1515 10.0495 24.1472" fill="#BFE0E0"/>
</svg>
